<?xml version="1.0" encoding="UTF-8" standalone="no"?>
<!-- Created with Inkscape (http://www.inkscape.org/) -->

<svg
   width="206.5955mm"
   height="44.418034mm"
   viewBox="0 0 206.5955 44.418034"
   version="1.1"
   id="svg1"
   xml:space="preserve"
   inkscape:version="1.3.2 (091e20e, 2023-11-25, custom)"
   sodipodi:docname="iCANDID.svg"
   xmlns:inkscape="http://www.inkscape.org/namespaces/inkscape"
   xmlns:sodipodi="http://sodipodi.sourceforge.net/DTD/sodipodi-0.dtd"
   xmlns="http://www.w3.org/2000/svg"
   xmlns:svg="http://www.w3.org/2000/svg"><sodipodi:namedview
     id="namedview1"
     pagecolor="#ffffff"
     bordercolor="#000000"
     borderopacity="0.25"
     inkscape:showpageshadow="2"
     inkscape:pageopacity="0.0"
     inkscape:pagecheckerboard="0"
     inkscape:deskcolor="#d1d1d1"
     inkscape:document-units="mm"
     inkscape:zoom="4.3936868"
     inkscape:cx="134.39738"
     inkscape:cy="102.53348"
     inkscape:window-width="2880"
     inkscape:window-height="1514"
     inkscape:window-x="2869"
     inkscape:window-y="-11"
     inkscape:window-maximized="1"
     inkscape:current-layer="text1" /><defs
     id="defs1" /><g
     inkscape:groupmode="layer"
     id="layer2"
     inkscape:label="Layer 2"><g
       id="text1"
       style="font-size:40.8233px;font-family:Audiowide;-inkscape-font-specification:Audiowide;text-align:center;letter-spacing:0.370417px;text-anchor:middle;stroke-width:2.45556;stroke-linecap:round"
       aria-label="iCANDID"><path
         style="fill:#00c7ff;stroke-width:2.29157"
         d="M 15.453642,13.013073 H 10.617119 V 8.6415996 h 4.836523 z m 0,24.238422 H 10.617119 V 17.142719 h 4.836523 z"
         id="path1" /><path
         d="m 46.959798,37.251495 h -18.69739 q -0.717597,0 -1.554793,-0.159466 -0.817264,-0.179399 -1.634527,-0.538197 -0.79733,-0.358799 -1.53486,-0.91693 -0.737531,-0.578064 -1.315595,-1.375394 -0.558131,-0.817264 -0.896996,-1.873726 -0.338865,-1.076396 -0.338865,-2.411923 v -14.03301 q 0,-0.717597 0.159466,-1.53486 0.179399,-0.837197 0.538197,-1.634527 0.358799,-0.817263 0.936863,-1.554793 0.578064,-0.737531 1.375395,-1.2956617 0.817263,-0.5780643 1.873725,-0.9169295 1.056463,-0.3388653 2.39199,-0.3388653 h 18.69739 v 5.1826455 h -18.69739 q -1.016595,0 -1.554793,0.538198 -0.538198,0.538197 -0.538198,1.59466 v 13.993143 q 0,0.996662 0.538198,1.554793 0.558131,0.538198 1.554793,0.538198 h 18.69739 z m 33.320081,0 H 75.097234 V 30.234991 H 56.878242 v 7.016504 H 51.695596 V 22.959354 q 0,-3.129521 1.076396,-5.76071 1.076396,-2.631189 2.989988,-4.524848 1.913592,-1.893659 4.524848,-2.9501212 2.611256,-1.0564623 5.70091,-1.0564623 h 11.680885 q 0.538198,0 1.016596,0.1993325 0.478398,0.1993325 0.837197,0.558131 0.358798,0.3587986 0.558131,0.837197 0.199332,0.478398 0.199332,1.016595 z M 56.878242,25.052345 H 75.097234 V 13.849858 h -9.109496 q -0.239199,0 -1.016596,0.07973 -0.757464,0.0598 -1.774059,0.338865 -0.996663,0.279066 -2.112925,0.85713 -1.116262,0.578064 -2.053125,1.59466 -0.936863,1.016596 -1.554794,2.551456 -0.597997,1.514927 -0.597997,3.687652 z m 58.356248,9.986559 q 0,0.558131 -0.21927,1.03653 -0.19933,0.478398 -0.55813,0.837196 -0.33886,0.338865 -0.81726,0.538198 -0.4784,0.199332 -1.0166,0.199332 -0.4784,0 -0.97673,-0.179399 -0.4784,-0.179399 -0.85713,-0.578064 L 91.852784,17.118911 V 37.251495 H 86.670138 V 10.879803 q 0,-0.79733 0.438532,-1.4351937 Q 87.567135,8.786812 88.264798,8.46788 89.002329,8.1688812 89.779726,8.3283472 90.557122,8.46788 91.115253,9.0459443 L 110.05184,28.799797 V 8.6672125 h 5.18265 z m 34.91474,-9.74736 q 0,2.611256 -0.91693,4.803914 -0.897,2.192658 -2.49166,3.787318 -1.59466,1.574727 -3.78732,2.471723 -2.19265,0.896996 -4.76404,0.896996 h -13.99315 q -0.55813,0 -1.03653,-0.199332 -0.47839,-0.199333 -0.83719,-0.538198 -0.33887,-0.358798 -0.5382,-0.837197 -0.19933,-0.478398 -0.19933,-1.036529 V 11.278468 q 0,-0.538197 0.19933,-1.016595 0.19933,-0.4783984 0.5382,-0.837197 0.3588,-0.3587985 0.83719,-0.558131 0.4784,-0.1993325 1.03653,-0.1993325 h 13.99315 q 2.57139,0 4.76404,0.8969963 2.19266,0.8969962 3.78732,2.4916562 1.59466,1.574727 2.49166,3.787318 0.91693,2.192658 0.91693,4.78398 z m -5.18265,-4.664381 q 0,-1.514927 -0.49833,-2.770722 -0.4784,-1.255794 -1.37539,-2.132857 -0.897,-0.896997 -2.1528,-1.375395 -1.23586,-0.498331 -2.75078,-0.498331 H 126.76752 V 32.06885 h 11.42176 q 1.51492,0 2.75078,-0.478398 1.2558,-0.498331 2.1528,-1.375394 0.89699,-0.896997 1.37539,-2.132858 0.49833,-1.255795 0.49833,-2.790656 z m 15.85856,16.624332 h -5.18265 V 8.6672125 h 5.18265 z m 34.9546,-11.959951 q 0,2.611256 -0.91693,4.803914 -0.89699,2.192658 -2.49165,3.787318 -1.59466,1.574727 -3.78732,2.471723 -2.19266,0.896996 -4.76405,0.896996 h -13.99314 q -0.55813,0 -1.03653,-0.199332 -0.4784,-0.199333 -0.8372,-0.538198 -0.33886,-0.358798 -0.53819,-0.837197 -0.19934,-0.478398 -0.19934,-1.036529 V 11.278468 q 0,-0.538197 0.19934,-1.016595 0.19933,-0.4783984 0.53819,-0.837197 0.3588,-0.3587985 0.8372,-0.558131 0.4784,-0.1993325 1.03653,-0.1993325 h 13.99314 q 2.57139,0 4.76405,0.8969963 2.19266,0.8969962 3.78732,2.4916562 1.59466,1.574727 2.49165,3.787318 0.91693,2.192658 0.91693,4.78398 z m -5.18264,-4.664381 q 0,-1.514927 -0.49833,-2.770722 -0.4784,-1.255794 -1.3754,-2.132857 -0.89699,-0.896997 -2.15279,-1.375395 -1.23586,-0.498331 -2.75079,-0.498331 H 172.39804 V 32.06885 h 11.42175 q 1.51493,0 2.75079,-0.478398 1.2558,-0.498331 2.15279,-1.375394 0.897,-0.896997 1.3754,-2.132858 0.49833,-1.255795 0.49833,-2.790656 z"
         id="path2" /></g></g></svg>
